{
	"asset":{
		"generator":"Khronos glTF Blender I/O v3.6.27",
		"version":"2.0"
	},
	"scene":0,
	"scenes":[
		{
			"name":"Scene",
			"nodes":[
				0,
				2,
				4
			]
		}
	],
	"nodes":[
		{
			"mesh":0,
			"name":"Plane",
			"scale":[
				16.92045783996582,
				16.92045783996582,
				16.92045783996582
			]
		},
		{
			"name":"Zone.001",
			"rotation":[
				0,
				-0.7121256589889526,
				0,
				0.7020520567893982
			],
			"scale":[
				1.6795437335968018,
				0.8534414172172546,
				2.0450282096862793
			],
			"translation":[
				0.23207688331604004,
				0.27964627742767334,
				1.18302583694458
			]
		},
		{
			"children":[
				1
			],
			"mesh":1,
			"name":"Cube.003",
			"rotation":[
				0,
				0.9085608124732971,
				0,
				0.4177526533603668
			],
			"translation":[
				-5.851030349731445,
				0.922446608543396,
				4.929229736328125
			]
		},
		{
			"name":"Zone.000",
			"rotation":[
				0,
				-0.7121256589889526,
				0,
				0.7020520567893982
			],
			"scale":[
				1.6795437335968018,
				0.8534414172172546,
				2.0450282096862793
			],
			"translation":[
				0.23207736015319824,
				0.27964627742767334,
				1.1830253601074219
			]
		},
		{
			"children":[
				3
			],
			"mesh":2,
			"name":"Cube.001",
			"rotation":[
				0,
				0.43011823296546936,
				0,
				0.9027725458145142
			],
			"translation":[
				-5.95238733291626,
				0.8898274302482605,
				-6.845379829406738
			]
		}
	],
	"meshes":[
		{
			"name":"Plane",
			"primitives":[
				{
					"attributes":{
						"POSITION":0,
						"NORMAL":1,
						"TEXCOORD_0":2
					},
					"indices":3
				}
			]
		},
		{
			"name":"Cube.004",
			"primitives":[
				{
					"attributes":{
						"POSITION":4,
						"NORMAL":5,
						"TEXCOORD_0":6
					},
					"indices":7
				}
			]
		},
		{
			"name":"Cube.005",
			"primitives":[
				{
					"attributes":{
						"POSITION":8,
						"NORMAL":9,
						"TEXCOORD_0":10
					},
					"indices":7
				}
			]
		}
	],
	"accessors":[
		{
			"bufferView":0,
			"componentType":5126,
			"count":4,
			"max":[
				1,
				0,
				1
			],
			"min":[
				-1,
				0,
				-1
			],
			"type":"VEC3"
		},
		{
			"bufferView":1,
			"componentType":5126,
			"count":4,
			"type":"VEC3"
		},
		{
			"bufferView":2,
			"componentType":5126,
			"count":4,
			"type":"VEC2"
		},
		{
			"bufferView":3,
			"componentType":5123,
			"count":6,
			"type":"SCALAR"
		},
		{
			"bufferView":4,
			"componentType":5126,
			"count":24,
			"max":[
				1.8793048858642578,
				0.8126506805419922,
				0.3501396179199219
			],
			"min":[
				-1.8793048858642578,
				-0.8126506805419922,
				-0.3501396179199219
			],
			"type":"VEC3"
		},
		{
			"bufferView":5,
			"componentType":5126,
			"count":24,
			"type":"VEC3"
		},
		{
			"bufferView":6,
			"componentType":5126,
			"count":24,
			"type":"VEC2"
		},
		{
			"bufferView":7,
			"componentType":5123,
			"count":36,
			"type":"SCALAR"
		},
		{
			"bufferView":8,
			"componentType":5126,
			"count":24,
			"max":[
				1.8793048858642578,
				0.8126506805419922,
				0.3501396179199219
			],
			"min":[
				-1.8793048858642578,
				-0.8126506805419922,
				-0.3501396179199219
			],
			"type":"VEC3"
		},
		{
			"bufferView":9,
			"componentType":5126,
			"count":24,
			"type":"VEC3"
		},
		{
			"bufferView":10,
			"componentType":5126,
			"count":24,
			"type":"VEC2"
		}
	],
	"bufferViews":[
		{
			"buffer":0,
			"byteLength":48,
			"byteOffset":0,
			"target":34962
		},
		{
			"buffer":0,
			"byteLength":48,
			"byteOffset":48,
			"target":34962
		},
		{
			"buffer":0,
			"byteLength":32,
			"byteOffset":96,
			"target":34962
		},
		{
			"buffer":0,
			"byteLength":12,
			"byteOffset":128,
			"target":34963
		},
		{
			"buffer":0,
			"byteLength":288,
			"byteOffset":140,
			"target":34962
		},
		{
			"buffer":0,
			"byteLength":288,
			"byteOffset":428,
			"target":34962
		},
		{
			"buffer":0,
			"byteLength":192,
			"byteOffset":716,
			"target":34962
		},
		{
			"buffer":0,
			"byteLength":72,
			"byteOffset":908,
			"target":34963
		},
		{
			"buffer":0,
			"byteLength":288,
			"byteOffset":980,
			"target":34962
		},
		{
			"buffer":0,
			"byteLength":288,
			"byteOffset":1268,
			"target":34962
		},
		{
			"buffer":0,
			"byteLength":192,
			"byteOffset":1556,
			"target":34962
		}
	],
	"buffers":[
		{
			"byteLength":1748,
			"uri":"data:application/octet-stream;base64,"
		}
	]
}
